<?xml version="1.0" encoding="UTF-8" standalone="no"?>
<svg
   width="1100"
   height="1100"
   viewBox="0 0 1100 1100"
   fill="none"
   version="1.1"
   id="svg167"
   sodipodi:docname="chulo solo - Logo.svg"
   inkscape:version="1.2 (dc2aeda, 2022-05-15)"
   inkscape:export-filename="chulo solo - Logo 300x300.png"
   inkscape:export-xdpi="26.181818"
   inkscape:export-ydpi="26.181818"
   xmlns:inkscape="http://www.inkscape.org/namespaces/inkscape"
   xmlns:sodipodi="http://sodipodi.sourceforge.net/DTD/sodipodi-0.dtd"
   xmlns="http://www.w3.org/2000/svg"
   xmlns:svg="http://www.w3.org/2000/svg">
  <sodipodi:namedview
     id="namedview169"
     pagecolor="#ffffff"
     bordercolor="#000000"
     borderopacity="0.25"
     inkscape:showpageshadow="2"
     inkscape:pageopacity="0.0"
     inkscape:pagecheckerboard="0"
     inkscape:deskcolor="#d1d1d1"
     showgrid="false"
     inkscape:zoom="0.632"
     inkscape:cx="941.4557"
     inkscape:cy="595.72785"
     inkscape:window-width="1735"
     inkscape:window-height="965"
     inkscape:window-x="0"
     inkscape:window-y="25"
     inkscape:window-maximized="0"
     inkscape:current-layer="svg167" />
  <g
     clip-path="url(#clip0_43_389)"
     id="g160"
     transform="translate(118.67089,-63.291139)">
    <path
       d="m 488.351,732.858 c -43.219,-38.656 -65.166,-104.359 -65.166,-195.195 0,-47.333 38.492,-85.877 85.763,-85.877 47.271,0 85.762,38.544 85.762,85.877 v 229.906 l -5.965,0.677 c -0.45,0 -3.376,0.338 -8.216,0.338 -16.882,0 -56.612,-3.832 -92.403,-35.839 z M 581.43,537.663 c 0,-40.008 -32.527,-72.465 -72.37,-72.465 -39.955,0 -72.369,32.57 -72.369,72.465 0,86.666 20.372,148.876 60.439,184.94 32.752,29.414 70.006,32.57 84.3,32.57 z"
       fill="#e94c26"
       id="path150" />
    <path
       d="m 200.337,246.563 c 0.901,-2.818 3.939,-4.283 6.641,-3.268 1.238,0.45 119.977,40.459 200.225,40.459 80.247,0 198.987,-40.009 200.225,-40.459 2.701,-0.902 5.74,0.563 6.64,3.268 0.901,2.705 -0.562,5.748 -3.264,6.649 -4.952,1.691 -121.665,41.023 -203.601,41.023 -81.936,0 -198.65,-39.332 -203.602,-41.023 -2.814,-0.901 -4.277,-3.944 -3.264,-6.649 z"
       fill="#e94c26"
       id="path152" />
    <path
       d="m 566.347,832.146 h 6.303 v -69.535 c 0,-3.494 -2.814,-6.311 -6.303,-6.311 -3.489,0 -6.303,2.817 -6.303,6.311 v 56.8 C 378.277,816.03 231.4,666.929 231.4,484.019 V 357.345 c 0,-3.494 -2.813,-6.311 -6.302,-6.311 -3.489,0 -6.303,2.817 -6.303,6.311 v 126.674 c 0,191.926 155.993,348.127 347.665,348.127 z"
       fill="#e94c26"
       id="path154" />
    <path
       fill-rule="evenodd"
       clip-rule="evenodd"
       d="m 251.547,413.469 c -18.458,-14.764 -30.051,-35.838 -32.64,-59.392 v -0.113 c -3.038,-28.062 7.654,-56.237 28.363,-75.171 l -20.372,-15.665 c -2.926,-2.254 -3.489,-6.424 -1.238,-9.354 2.251,-2.93 6.416,-3.493 9.342,-1.239 l 128.088,98.499 h 88.32 l 128.218,-98.387 c 2.926,-2.254 7.09,-1.69 9.341,1.24 2.251,2.93 1.689,7.1 -1.238,9.354 l -20.371,15.665 c 20.709,18.934 31.514,46.996 28.362,75.171 -2.588,23.554 -14.181,44.628 -32.639,59.392 -15.869,12.622 -35.115,19.384 -55.037,19.384 -3.376,0 -6.64,-0.225 -10.016,-0.563 -29.488,-3.269 -55.262,-21.188 -68.768,-47.334 l -16.882,12.96 c -1.238,0.902 -2.589,1.353 -4.052,1.353 -0.169,0 -0.338,-0.056 -0.507,-0.113 -0.168,-0.056 -0.337,-0.113 -0.506,-0.113 -0.169,0 -0.338,0.057 -0.507,0.113 -0.168,0.057 -0.337,0.113 -0.506,0.113 -1.463,0 -2.814,-0.451 -4.052,-1.353 l -16.882,-12.96 c -13.506,26.146 -39.28,44.065 -68.768,47.334 -3.376,0.338 -6.753,0.563 -10.017,0.563 -19.921,0 -39.167,-6.762 -55.036,-19.384 z m 211.367,-54.321 -22.622,17.356 h 0.112 c 11.143,23.441 33.54,39.557 59.314,42.487 19.921,2.254 39.505,-3.493 55.149,-16.003 15.644,-12.51 25.436,-30.429 27.687,-50.377 2.814,-25.131 -6.865,-49.136 -25.886,-65.365 l -20.934,16.116 c 13.055,10.03 19.921,26.259 18.12,42.713 -2.701,24.23 -23.298,42.262 -47.158,42.262 -1.688,0 -3.489,-0.113 -5.29,-0.338 -17.22,-1.916 -31.851,-12.96 -38.492,-28.851 z M 258.306,287.337 c -18.839,16.228 -28.588,40.302 -25.78,65.274 2.138,19.948 12.043,37.867 27.687,50.377 15.644,12.51 35.228,18.257 55.149,16.003 25.774,-2.93 48.171,-19.159 59.314,-42.487 l -22.623,-17.356 c -6.753,15.891 -21.272,26.935 -38.492,28.851 -1.8,0.338 -3.601,0.338 -5.402,0.338 v 0 c -10.805,0 -21.159,-3.606 -29.6,-10.368 -9.905,-8.002 -16.207,-19.272 -17.558,-31.894 -1.801,-16.342 5.177,-32.57 18.12,-42.713 z"
       fill="#e94c26"
       id="path156" />
    <path
       d="M 559.031,901.231 H 421.158 c -3.853,0 -6.978,3.103 -6.978,6.931 0,3.828 3.125,6.931 6.978,6.931 h 137.873 c 3.854,0 6.978,-3.103 6.978,-6.931 0,-3.828 -3.124,-6.931 -6.978,-6.931 z"
       fill="#e94c26"
       id="path158" />
  </g>
  <defs
     id="defs165">
    <clipPath
       id="clip0_43_389">
      <rect
         width="1600"
         height="733.33301"
         fill="#ffffff"
         transform="translate(200,183)"
         id="rect162"
         x="0"
         y="0" />
    </clipPath>
  </defs>
</svg>
