<svg width="2000" height="524" viewBox="0 0 2000 524" fill="none" xmlns="http://www.w3.org/2000/svg">
<path d="M497.089 233.065C503.828 240.064 506.101 248.853 506.101 262.118C506.101 271.151 502.691 275.709 497.495 275.709C491.893 275.709 488.321 269.93 483.45 263.664C475.493 253.492 463.478 239.413 442.288 239.413C426.051 239.413 417.039 248.446 417.039 260.083C417.039 275.871 432.465 280.429 457.714 288.811C486.697 298.007 514.301 308.831 514.301 344.313C514.301 379.795 484.505 398.268 445.211 398.268C425.077 398.268 395.768 392.002 383.915 376.214C379.369 370.599 376.446 360.426 376.446 348.219C376.446 338.697 379.531 333.977 385.458 333.977C389.03 333.977 392.196 337.721 395.606 342.766C404.374 355.462 419.15 374.505 447.078 374.505C463.478 374.505 472.814 365.878 472.814 352.451C472.814 334.954 453.979 330.722 428.486 320.712C405.998 312.086 381.073 302.239 381.073 270.663C381.073 239.087 412.249 218.742 446.591 218.742C463.153 218.742 487.022 222.485 497.252 233.146L497.089 233.065Z" fill="black"/>
<path d="M637.623 292.311C639.49 290.927 641.195 288.241 641.195 277.581C641.195 255.689 632.021 238.029 609.694 238.029C591.59 238.029 583.146 251.946 579.412 267.571C577.382 275.872 573.972 281.324 564.636 281.324C555.299 281.324 544.664 274.57 544.664 259.595C544.664 240.064 568.695 218.824 610.182 218.824C653.86 218.824 682.194 243.075 682.194 287.102C682.194 309.156 680.327 335.28 680.327 350.742C680.327 358.229 682.681 365.309 690.15 365.309C694.21 365.309 695.915 363.926 698.431 363.926C699.812 363.926 701.516 365.797 701.516 369.704C701.516 384.271 687.958 396.153 671.072 396.153C656.701 396.153 647.203 390.7 642.088 378.33C641.438 376.784 640.383 375.482 639.246 375.482C638.11 375.482 636.73 377.516 635.349 378.9C624.308 389.561 606.041 397.78 586.719 397.78C558.06 397.78 535.733 382.643 535.733 355.543C535.733 328.444 555.056 311.598 585.014 302.565C607.015 296.298 633.644 295.24 637.704 292.392L637.623 292.311ZM638.191 314.039C624.146 314.039 612.78 315.423 603.118 318.434C585.176 324.375 577.22 336.256 577.22 348.301C577.22 362.379 587.693 370.518 602.306 370.518C625.363 370.518 641.438 353.183 641.438 327.223C641.438 317.05 640.464 313.958 638.191 313.958V314.039Z" fill="black"/>
<path d="M731.799 191.398C731.799 183.26 726.36 179.517 720.271 177.157C716.861 175.285 713.532 173.413 713.532 169.181C713.532 162.59 720.677 160.881 733.017 156.079C750.31 149.65 756.723 144.035 763.868 144.035C769.632 144.035 773.529 147.127 773.529 154.37C773.529 163.729 770.85 178.947 770.85 211.092V238.762C770.85 245.191 771.905 247.388 773.204 247.388C776.939 247.388 791.634 218.905 827.599 218.905C867.218 218.905 892.63 252.19 892.63 303.134C892.63 364.089 858.044 396.966 814.041 396.966C787.98 396.966 772.88 379.47 765.573 379.47C760.133 379.47 755.749 380.527 751.528 385.248C745.601 391.839 741.542 398.838 736.264 398.838C731.88 398.838 729.282 395.99 729.282 391.188C729.282 382.888 731.799 376.784 731.799 342.116V191.398ZM771.256 307.854C771.256 358.473 789.198 373.366 809.738 373.366C830.279 373.366 849.52 353.509 849.52 309.401C849.52 265.292 832.958 246.9 811.281 246.9C791.309 246.9 771.337 265.78 771.337 307.854H771.256Z" fill="black"/>
<path d="M970.487 286.859V353.021C970.487 364.74 973.572 369.46 978.606 373.936C983.315 378.331 988.917 379.389 988.917 385.98C988.917 390.863 986.238 394.444 977.063 394.444C967.889 394.444 960.258 393.63 951.003 393.63C940.53 393.63 936.064 394.444 922.019 394.444C913.9 394.444 911.546 390.701 911.546 386.469C911.546 380.04 917.472 377.11 920.72 374.424C929.001 366.937 930.381 359.694 930.381 350.987V269.85C930.381 260.491 925.429 255.446 919.34 252.841C915.768 250.807 911.871 248.447 911.871 244.215C911.871 236.24 920.639 235.589 931.68 231.113C947.593 224.684 956.767 218.906 962.531 218.906C968.945 218.906 972.192 222.161 972.192 229.404C972.192 238.193 970.487 253.492 970.487 286.777V286.859ZM956.117 148.837C968.133 148.837 977.632 156.649 977.632 169.019C977.632 186.028 959.852 199.781 941.91 199.781C929.245 199.781 922.912 192.294 922.912 182.284C922.912 165.845 939.149 148.837 956.117 148.837Z" fill="black"/>
<path d="M1130.35 378.167C1128.97 375.807 1127.99 373.61 1126.29 373.61C1124.74 373.61 1122.71 376.296 1118.82 379.876C1111.19 387.038 1097.14 397.048 1074.25 397.048C1039.9 397.048 1007.51 369.867 1007.51 312.819C1007.51 251.05 1040.55 218.905 1079.69 218.905C1111.02 218.905 1122.71 240.145 1125.56 240.145C1127.26 240.145 1128.24 237.948 1128.24 227.45V192.131C1128.24 183.993 1122.63 179.435 1116.71 177.157C1113.13 175.285 1109.4 173.25 1109.4 169.181C1109.4 162.02 1118.01 160.555 1129.05 156.079C1144.96 149.813 1153.4 144.035 1160.06 144.035C1166.15 144.035 1169.72 147.29 1169.72 154.37C1169.72 168.612 1168.18 173.006 1168.18 212.802V350.661C1168.18 358.148 1171.02 365.228 1178.49 365.228C1182.71 365.228 1184.25 363.844 1186.77 363.844C1188.15 363.844 1190.02 365.716 1190.02 369.622C1190.02 384.19 1176.3 396.071 1159.57 396.071C1145.69 396.071 1136.52 391.351 1130.26 378.086L1130.35 378.167ZM1128.88 306.878C1128.88 258.131 1108.43 242.75 1089.92 242.75C1068.56 242.75 1050.62 261.956 1050.62 304.843C1050.62 344.72 1065.72 367.832 1091.13 367.832C1112.49 367.832 1128.88 351.556 1128.88 306.878Z" fill="black"/>
<path d="M1371.71 350.66C1371.71 358.147 1374.56 365.227 1381.86 365.227C1386.08 365.227 1387.63 363.844 1390.31 363.844C1391.69 363.844 1393.39 365.716 1393.39 369.622C1393.39 384.189 1379.83 396.071 1362.95 396.071C1343.79 396.071 1336.72 385.247 1332.83 376.865C1332.18 375.481 1331.28 373.447 1329.25 373.447C1328.2 373.447 1326.41 375.481 1324.54 377.19C1318.46 382.806 1303.92 396.885 1275.75 396.885C1234.59 396.885 1219 367.832 1219 332.187C1219 306.715 1222.57 275.79 1222.57 267.001C1222.57 257.479 1220.22 253.247 1216 249.178C1211.13 244.621 1203.33 243.237 1203.33 235.913C1203.33 230.135 1207.72 227.45 1216.24 226.392C1242.63 223.543 1250.99 219.8 1258.38 219.8C1265.77 219.8 1268.2 225.252 1268.2 229.972C1268.2 246.086 1260.73 267.001 1260.73 319.084C1260.73 346.754 1268.2 368.808 1294.42 368.808C1315.45 368.808 1331.53 354.892 1331.53 323.479V271.395C1331.53 259.351 1329.82 253.41 1322.51 248.12C1318.13 244.377 1312.85 242.342 1312.85 235.913C1312.85 230.298 1316.75 227.612 1324.38 226.554C1345.41 224.357 1360.43 219.8 1366.52 219.8C1372.93 219.8 1375.69 224.357 1375.69 229.81C1375.69 239.982 1371.8 248.12 1371.8 277.336V350.497L1371.71 350.66Z" fill="black"/>
<path d="M1470.19 289.706V351.474C1470.19 363.193 1473.44 368.239 1482.69 374.017C1487.97 377.598 1497.23 378.9 1497.23 385.899C1497.23 390.781 1494.55 394.362 1485.37 394.362C1476.2 394.362 1465.08 393.548 1450.63 393.548C1440.15 393.548 1435.77 394.362 1421.64 394.362C1413.52 394.362 1411.17 390.619 1411.17 386.387C1411.17 379.958 1417.1 377.028 1420.34 374.342C1428.62 366.855 1430 359.612 1430 350.905V266.187C1430 257.398 1424.4 253.98 1418.48 251.783C1414.9 250.074 1411.9 247.877 1411.9 243.808C1411.9 236.32 1420.67 235.018 1431.71 230.217C1445.75 224.113 1451.19 220.37 1456.8 220.37C1462.07 220.37 1465.08 222.567 1466.78 229.891C1468.49 237.867 1469.14 246.493 1472.06 246.493C1475.63 246.493 1493.41 218.824 1521.99 218.824C1537.41 218.824 1552.68 228.02 1552.68 252.108C1552.68 268.71 1541.15 284.905 1526.45 284.905C1516.63 284.905 1516.96 278.801 1514.76 268.303C1512.73 257.968 1508.02 251.701 1500.72 251.701C1484.64 251.701 1470.27 272.616 1470.27 289.706H1470.19Z" fill="black"/>
<path d="M1736.4 393.629H1642.71V384.189C1647.1 383.864 1652.21 383.05 1658.06 381.829C1663.9 380.608 1666.91 378.981 1666.91 377.19C1666.91 376.539 1666.91 375.807 1666.74 374.993C1666.66 374.179 1666.26 373.121 1665.69 371.738L1650.99 336.012H1591.65C1590.27 339.348 1588.8 343.255 1587.1 347.649C1585.48 352.125 1584.01 356.113 1582.8 359.531C1581.25 364.088 1580.36 367.343 1580.12 369.378C1579.79 371.412 1579.71 372.796 1579.71 373.61C1579.71 376.214 1581.66 378.411 1585.56 380.202C1589.45 381.992 1596.03 383.375 1605.12 384.108V393.548H1534.57V384.108C1537.25 383.945 1540.26 383.538 1543.58 382.806C1546.91 382.155 1549.59 381.178 1551.54 379.957C1554.87 378.004 1557.63 375.644 1559.98 372.796C1562.26 369.948 1564.21 366.611 1565.75 362.705C1575.17 339.918 1584.5 317.131 1593.92 294.345C1603.34 271.477 1613.73 246.33 1625.1 218.742H1649.37C1665.2 257.805 1677.62 288.648 1686.55 311.353C1695.48 334.059 1703.12 352.858 1709.45 367.75C1710.5 370.192 1711.8 372.389 1713.43 374.342C1715.05 376.295 1717.32 378.248 1720.33 379.957C1722.6 381.26 1725.2 382.236 1728.2 382.887C1731.21 383.538 1733.89 383.945 1736.32 384.108V393.548L1736.4 393.629ZM1646.04 323.886L1621.12 261.548L1596.6 323.886H1646.04Z" fill="black"/>
<path d="M1832.61 393.629H1737.21V384.189C1739.41 384.026 1742.57 383.782 1746.88 383.456C1751.1 383.131 1754.02 382.643 1755.64 381.992C1758.65 380.771 1760.68 379.143 1761.73 377.19C1762.79 375.237 1763.36 372.714 1763.36 369.622V247.388C1763.36 244.621 1762.79 242.179 1761.81 240.063C1760.84 237.947 1758.73 236.239 1755.64 234.936C1753.69 234.123 1750.85 233.309 1747.04 232.414C1743.22 231.518 1739.97 230.949 1737.21 230.623V221.183H1832.61V230.623C1830.17 230.867 1827.17 231.193 1823.52 231.681C1819.86 232.088 1816.78 232.739 1814.34 233.553C1811.17 234.611 1809.06 236.239 1808.01 238.436C1806.95 240.633 1806.47 243.156 1806.47 246.004V368.075C1806.47 371.005 1807.03 373.447 1808.09 375.563C1809.15 377.597 1811.26 379.306 1814.34 380.608C1816.05 381.341 1818.81 382.073 1822.78 382.724C1826.68 383.375 1830.01 383.863 1832.69 384.026V393.466L1832.61 393.629Z" fill="black"/>
<path d="M289.611 326.276C271.383 310.001 262.126 282.339 262.126 244.095C262.126 224.167 278.361 207.939 298.298 207.939C318.235 207.939 334.47 224.167 334.47 244.095V340.89L331.954 341.175C331.764 341.175 330.53 341.317 328.489 341.317C321.368 341.317 304.611 339.704 289.516 326.229L289.611 326.276ZM328.869 244.095C328.869 227.251 315.15 213.586 298.345 213.586C281.494 213.586 267.822 227.298 267.822 244.095C267.822 280.583 276.414 306.775 293.314 321.958C307.127 334.342 322.84 335.671 328.869 335.671V244.095Z" fill="black"/>
<path d="M168.135 121.535C168.515 120.349 169.797 119.732 170.936 120.112C171.458 120.302 221.539 137.146 255.385 137.146C289.231 137.146 339.312 120.302 339.834 120.112C340.973 119.732 342.255 120.349 342.635 121.488C343.014 122.627 342.397 123.908 341.258 124.287C339.169 124.999 289.943 141.559 255.385 141.559C220.827 141.559 171.601 125.047 169.512 124.335C168.325 123.955 167.708 122.674 168.135 121.535Z" fill="black"/>
<path d="M322.508 368.077H325.167V338.801C325.167 337.33 323.98 336.144 322.508 336.144C321.037 336.144 319.85 337.33 319.85 338.801V362.715C243.186 361.292 181.238 298.517 181.238 221.508V168.176C181.238 166.705 180.051 165.519 178.58 165.519C177.108 165.519 175.921 166.705 175.921 168.176V221.508C175.921 302.313 241.715 368.077 322.556 368.077H322.508Z" fill="black"/>
<path fill-rule="evenodd" clip-rule="evenodd" d="M189.736 191.758C181.951 185.542 177.061 176.669 175.969 166.752C174.688 154.938 179.197 143.075 187.932 135.104L179.34 128.509C178.105 127.56 177.868 125.804 178.817 124.57C179.767 123.337 181.523 123.099 182.757 124.048L236.828 165.519H273.969L328.11 124.048C329.344 123.099 331.101 123.337 332.05 124.57C332.999 125.804 332.762 127.56 331.528 128.509L322.936 135.104C331.67 143.075 336.227 154.89 334.898 166.752C333.806 176.669 328.917 185.542 321.132 191.758C314.439 197.072 306.321 199.919 297.919 199.919C296.495 199.919 295.119 199.824 293.694 199.682C281.257 198.306 270.387 190.761 264.69 179.753L257.57 185.21C257.048 185.589 256.478 185.779 255.861 185.779C255.79 185.779 255.719 185.755 255.647 185.732C255.576 185.708 255.505 185.684 255.434 185.684C255.363 185.684 255.291 185.708 255.22 185.732C255.149 185.755 255.078 185.779 255.007 185.779C254.389 185.779 253.82 185.589 253.298 185.21L246.177 179.753C240.481 190.761 229.61 198.306 217.173 199.682C215.749 199.824 214.325 199.919 212.948 199.919C204.546 199.919 196.429 197.072 189.736 191.758ZM278.884 168.887L269.342 176.194H269.39C274.089 186.064 283.536 192.849 294.407 194.083C302.809 195.032 311.068 192.612 317.667 187.345C324.265 182.078 328.395 174.534 329.344 166.135C330.531 155.554 326.449 145.448 318.426 138.615L309.597 145.4C315.103 149.623 317.999 156.456 317.24 163.383C316.1 173.585 307.413 181.177 297.35 181.177C296.638 181.177 295.878 181.129 295.119 181.034C287.856 180.228 281.685 175.578 278.884 168.887ZM192.586 138.654C184.641 145.486 180.529 155.622 181.713 166.135C182.615 174.534 186.792 182.078 193.391 187.345C199.989 192.612 208.249 195.032 216.651 194.083C227.522 192.849 236.968 186.016 241.668 176.194L232.126 168.887C229.278 175.578 223.154 180.228 215.891 181.034C215.132 181.177 214.372 181.177 213.613 181.177C209.056 181.177 204.689 179.658 201.128 176.811C196.951 173.442 194.293 168.698 193.723 163.383C192.964 156.503 195.907 149.671 201.366 145.4L192.586 138.654Z" fill="black"/>
<path d="M319.419 397.164H261.268C259.643 397.164 258.325 398.471 258.325 400.082C258.325 401.694 259.643 403 261.268 403H319.419C321.044 403 322.362 401.694 322.362 400.082C322.362 398.471 321.044 397.164 319.419 397.164Z" fill="black"/>
</svg>
