<svg width="2000" height="1100" viewBox="0 0 2000 1100" fill="none" xmlns="http://www.w3.org/2000/svg">
<g clip-path="url(#clip0_43_389)">
<path d="M844.795 306.18C854.137 315.872 857.288 328.043 857.288 346.413C857.288 358.923 852.561 365.234 845.358 365.234C837.592 365.234 832.64 357.232 825.887 348.554C814.857 334.467 798.2 314.97 768.825 314.97C746.315 314.97 733.822 327.48 733.822 343.596C733.822 365.459 755.206 371.771 790.209 383.379C830.389 396.114 868.656 411.103 868.656 460.239C868.656 509.376 827.35 534.959 772.876 534.959C744.964 534.959 704.334 526.281 687.902 504.417C681.599 496.641 677.547 482.554 677.547 465.649C677.547 452.463 681.824 445.927 690.04 445.927C694.992 445.927 699.382 451.111 704.109 458.098C716.264 475.679 736.748 502.051 775.465 502.051C798.2 502.051 811.143 490.105 811.143 471.509C811.143 447.279 785.032 441.419 749.691 427.557C718.515 415.611 683.962 401.974 683.962 358.247C683.962 314.519 727.181 286.345 774.79 286.345C797.75 286.345 830.839 291.529 845.02 306.292L844.795 306.18Z" fill="#323F4F"/>
<path d="M1039.62 388.226C1042.21 386.31 1044.57 382.591 1044.57 367.827C1044.57 337.511 1031.85 313.055 1000.9 313.055C975.802 313.055 964.097 332.327 958.92 353.965C956.106 365.461 951.379 373.011 938.436 373.011C925.493 373.011 910.749 363.657 910.749 342.921C910.749 315.873 944.063 286.458 1001.58 286.458C1062.13 286.458 1101.41 320.043 1101.41 381.013C1101.41 411.555 1098.82 447.731 1098.82 469.144C1098.82 479.512 1102.08 489.317 1112.44 489.317C1118.06 489.317 1120.43 487.401 1123.92 487.401C1125.83 487.401 1128.19 489.993 1128.19 495.403C1128.19 515.576 1109.4 532.03 1085.99 532.03C1066.07 532.03 1052.9 524.479 1045.81 507.349C1044.91 505.208 1043.44 503.404 1041.87 503.404C1040.29 503.404 1038.38 506.222 1036.47 508.138C1021.16 522.901 995.836 534.284 969.049 534.284C929.319 534.284 898.368 513.322 898.368 475.793C898.368 438.264 925.155 414.936 966.686 402.426C997.187 393.748 1034.1 392.283 1039.73 388.339L1039.62 388.226ZM1040.29 418.316C1020.82 418.316 1005.07 420.232 991.672 424.402C966.798 432.629 955.769 449.083 955.769 465.763C955.769 485.26 970.287 496.53 990.546 496.53C1022.51 496.53 1044.79 472.525 1044.79 436.574C1044.79 422.486 1043.44 418.204 1040.29 418.204V418.316Z" fill="#323F4F"/>
<path d="M1170.06 248.591C1170.06 237.321 1162.52 232.137 1154.08 228.868C1149.35 226.276 1144.74 223.684 1144.74 217.824C1144.74 208.695 1154.64 206.329 1171.75 199.679C1195.72 190.776 1204.61 183 1214.52 183C1222.51 183 1227.91 187.282 1227.91 197.313C1227.91 210.273 1224.2 231.348 1224.2 275.864V314.182C1224.2 323.085 1225.66 326.128 1227.46 326.128C1232.64 326.128 1253.01 286.683 1302.87 286.683C1357.79 286.683 1393.02 332.777 1393.02 403.327C1393.02 487.738 1345.08 533.269 1284.07 533.269C1247.95 533.269 1227.01 509.038 1216.88 509.038C1209.34 509.038 1203.26 510.504 1197.41 517.04C1189.2 526.169 1183.57 535.861 1176.25 535.861C1170.17 535.861 1166.57 531.916 1166.57 525.267C1166.57 513.772 1170.06 505.319 1170.06 457.31V248.591ZM1224.76 409.863C1224.76 479.962 1249.63 500.586 1278.11 500.586C1306.58 500.586 1333.26 473.087 1333.26 412.005C1333.26 350.922 1310.3 325.452 1280.25 325.452C1252.56 325.452 1224.87 351.598 1224.87 409.863H1224.76Z" fill="#323F4F"/>
<path d="M1501.07 380.674V472.299C1501.07 488.528 1505.35 495.064 1512.32 501.263C1518.85 507.348 1526.62 508.813 1526.62 517.942C1526.62 524.704 1522.9 529.663 1510.19 529.663C1497.47 529.663 1486.89 528.536 1474.06 528.536C1459.54 528.536 1453.35 529.663 1433.88 529.663C1422.62 529.663 1419.36 524.479 1419.36 518.618C1419.36 509.715 1427.57 505.658 1432.08 501.939C1443.56 491.57 1445.47 481.54 1445.47 469.481V357.12C1445.47 344.16 1438.6 337.173 1430.16 333.566C1425.21 330.749 1419.81 327.48 1419.81 321.62C1419.81 310.576 1431.96 309.674 1447.27 303.476C1469.33 294.572 1482.05 286.571 1490.04 286.571C1498.93 286.571 1503.43 291.079 1503.43 301.109C1503.43 313.28 1501.07 334.468 1501.07 380.562V380.674ZM1481.04 189.537C1497.69 189.537 1510.86 200.356 1510.86 217.486C1510.86 241.04 1486.21 260.086 1461.34 260.086C1443.78 260.086 1435 249.718 1435 235.856C1435 213.091 1457.51 189.537 1481.04 189.537Z" fill="#323F4F"/>
<path d="M844.231 890.186C842.318 886.918 840.967 883.875 838.604 883.875C836.465 883.875 833.651 887.594 828.249 892.553C817.669 902.47 798.198 916.332 766.46 916.332C718.851 916.332 673.944 878.691 673.944 799.689C673.944 714.15 719.752 669.634 774 669.634C817.444 669.634 833.651 699.048 837.591 699.048C839.954 699.048 841.305 696.005 841.305 681.467V632.556C841.305 621.286 833.539 614.975 825.323 611.819C820.371 609.227 815.193 606.41 815.193 600.775C815.193 590.857 827.124 588.829 842.43 582.63C864.49 573.952 876.195 565.951 885.424 565.951C893.865 565.951 898.817 570.459 898.817 580.263C898.817 599.986 896.679 606.072 896.679 661.181V852.094C896.679 862.462 900.618 872.267 910.973 872.267C916.825 872.267 918.964 870.351 922.453 870.351C924.366 870.351 926.955 872.943 926.955 878.353C926.955 898.526 907.934 914.98 884.749 914.98C865.503 914.98 852.785 908.443 844.119 890.073L844.231 890.186ZM842.205 791.462C842.205 723.955 813.843 702.655 788.182 702.655C758.581 702.655 733.708 729.252 733.708 788.644C733.708 843.867 754.642 875.873 789.87 875.873C819.47 875.873 842.205 853.334 842.205 791.462Z" fill="#323F4F"/>
<path d="M1178.84 852.094C1178.84 862.463 1182.78 872.268 1192.91 872.268C1198.76 872.268 1200.9 870.352 1204.62 870.352C1206.53 870.352 1208.89 872.944 1208.89 878.353C1208.89 898.526 1190.1 914.98 1166.69 914.98C1140.12 914.98 1130.33 899.992 1124.93 888.384C1124.03 886.468 1122.79 883.65 1119.98 883.65C1118.51 883.65 1116.04 886.468 1113.45 888.834C1105.01 896.611 1084.86 916.108 1045.81 916.108C988.746 916.108 967.136 875.874 967.136 826.512C967.136 791.237 972.088 748.411 972.088 736.24C972.088 723.054 968.825 717.194 962.972 711.559C956.219 705.247 945.414 703.332 945.414 693.189C945.414 685.187 951.492 681.468 963.31 680.003C999.888 676.058 1011.48 670.874 1021.72 670.874C1031.96 670.874 1035.34 678.425 1035.34 684.962C1035.34 707.276 1024.99 736.24 1024.99 808.367C1024.99 846.685 1035.34 877.226 1071.69 877.226C1100.84 877.226 1123.13 857.955 1123.13 814.453V742.325C1123.13 725.646 1120.77 717.419 1110.64 710.093C1104.56 704.909 1097.24 702.092 1097.24 693.189C1097.24 685.412 1102.65 681.693 1113.23 680.228C1142.38 677.185 1163.2 670.874 1171.64 670.874C1180.53 670.874 1184.36 677.185 1184.36 684.736C1184.36 698.824 1178.95 710.093 1178.95 750.552V851.869L1178.84 852.094Z" fill="#323F4F"/>
<path d="M1315.36 767.682V853.221C1315.36 869.45 1319.86 876.437 1332.69 884.439C1340.01 889.397 1352.84 891.2 1352.84 900.893C1352.84 907.655 1349.13 912.613 1336.41 912.613C1323.69 912.613 1308.27 911.486 1288.24 911.486C1273.72 911.486 1267.64 912.613 1248.06 912.613C1236.8 912.613 1233.54 907.429 1233.54 901.569C1233.54 892.666 1241.75 888.608 1246.26 884.889C1257.74 874.521 1259.65 864.491 1259.65 852.432V735.112C1259.65 722.941 1251.88 718.207 1243.67 715.164C1238.72 712.798 1234.55 709.755 1234.55 704.12C1234.55 693.752 1246.71 691.948 1262.01 685.299C1281.48 676.847 1289.03 671.663 1296.79 671.663C1304.11 671.663 1308.27 674.705 1310.64 684.848C1313 695.893 1313.9 707.839 1317.95 707.839C1322.9 707.839 1347.55 669.521 1387.17 669.521C1408.55 669.521 1429.71 682.256 1429.71 715.615C1429.71 738.606 1413.73 761.033 1393.36 761.033C1379.74 761.033 1380.19 752.581 1377.15 738.042C1374.34 723.73 1367.81 715.052 1357.68 715.052C1335.4 715.052 1315.47 744.015 1315.47 767.682H1315.36Z" fill="#323F4F"/>
<path d="M1666.63 910.924H1536.75V897.851C1542.82 897.4 1549.91 896.273 1558.02 894.583C1566.12 892.892 1570.29 890.639 1570.29 888.159C1570.29 887.258 1570.29 886.243 1570.06 885.116C1569.95 883.989 1569.39 882.524 1568.6 880.608L1548.23 831.133H1465.95C1464.04 835.754 1462.01 841.164 1459.65 847.249C1457.4 853.448 1455.37 858.97 1453.68 863.703C1451.55 870.015 1450.31 874.523 1449.97 877.34C1449.52 880.158 1449.41 882.073 1449.41 883.2C1449.41 886.807 1452.11 889.85 1457.51 892.329C1462.91 894.808 1472.03 896.724 1484.64 897.739V910.812H1386.83V897.739C1390.54 897.513 1394.71 896.95 1399.32 895.935C1403.94 895.034 1407.65 893.681 1410.35 891.991C1414.97 889.286 1418.79 886.018 1422.06 882.073C1425.21 878.129 1427.91 873.508 1430.05 868.099C1443.11 836.543 1456.05 804.987 1469.1 773.431C1482.16 741.763 1496.57 706.939 1512.32 668.734H1545.98C1567.92 722.829 1585.14 765.542 1597.52 796.986C1609.9 828.429 1620.48 854.462 1629.26 875.086C1630.72 878.467 1632.53 881.51 1634.78 884.215C1637.03 886.919 1640.18 889.624 1644.34 891.991C1647.49 893.794 1651.1 895.146 1655.26 896.048C1659.42 896.95 1663.14 897.513 1666.52 897.739V910.812L1666.63 910.924ZM1541.36 814.341L1506.81 728.014L1472.82 814.341H1541.36Z" fill="#323F4F"/>
<path d="M1800 910.923H1667.76V897.85C1670.79 897.624 1675.18 897.286 1681.15 896.835C1687 896.384 1691.05 895.708 1693.3 894.807C1697.47 893.116 1700.28 890.862 1701.74 888.157C1703.21 885.453 1704 881.959 1704 877.676V708.402C1704 704.571 1703.21 701.19 1701.86 698.259C1700.51 695.329 1697.58 692.963 1693.3 691.159C1690.6 690.032 1686.66 688.905 1681.37 687.666C1676.08 686.426 1671.58 685.637 1667.76 685.186V672.113H1800V685.186C1796.62 685.524 1792.46 685.975 1787.39 686.651C1782.33 687.215 1778.05 688.116 1774.68 689.243C1770.29 690.709 1767.36 692.963 1765.9 696.005C1764.43 699.048 1763.76 702.542 1763.76 706.486V875.535C1763.76 879.592 1764.55 882.973 1766.01 885.903C1767.47 888.721 1770.4 891.088 1774.68 892.891C1777.04 893.905 1780.87 894.919 1786.38 895.821C1791.78 896.723 1796.4 897.399 1800.11 897.624V910.697L1800 910.923Z" fill="#323F4F"/>
<path d="M488.351 732.858C445.132 694.202 423.185 628.499 423.185 537.663C423.185 490.33 461.677 451.786 508.948 451.786C556.219 451.786 594.71 490.33 594.71 537.663V767.569L588.745 768.246C588.295 768.246 585.369 768.584 580.529 768.584C563.647 768.584 523.917 764.752 488.126 732.745L488.351 732.858ZM581.43 537.663C581.43 497.655 548.903 465.198 509.06 465.198C469.105 465.198 436.691 497.768 436.691 537.663C436.691 624.329 457.063 686.539 497.13 722.603C529.882 752.017 567.136 755.173 581.43 755.173V537.663Z" fill="#E94C26"/>
<path d="M200.337 246.563C201.238 243.745 204.276 242.28 206.978 243.295C208.216 243.745 326.955 283.754 407.203 283.754C487.45 283.754 606.19 243.745 607.428 243.295C610.129 242.393 613.168 243.858 614.068 246.563C614.969 249.268 613.506 252.311 610.804 253.212C605.852 254.903 489.139 294.235 407.203 294.235C325.267 294.235 208.553 254.903 203.601 253.212C200.787 252.311 199.324 249.268 200.337 246.563Z" fill="#E94C26"/>
<path d="M566.347 832.146H572.65V762.611C572.65 759.117 569.836 756.3 566.347 756.3C562.858 756.3 560.044 759.117 560.044 762.611V819.411C378.277 816.03 231.4 666.929 231.4 484.019V357.345C231.4 353.851 228.587 351.034 225.098 351.034C221.609 351.034 218.795 353.851 218.795 357.345V484.019C218.795 675.945 374.788 832.146 566.46 832.146H566.347Z" fill="#E94C26"/>
<path fill-rule="evenodd" clip-rule="evenodd" d="M251.547 413.469C233.089 398.705 221.496 377.631 218.907 354.077V353.964C215.869 325.902 226.561 297.727 247.27 278.793L226.898 263.128C223.972 260.874 223.409 256.704 225.66 253.774C227.911 250.844 232.076 250.281 235.002 252.535L363.09 351.034H451.41L579.628 252.647C582.554 250.393 586.718 250.957 588.969 253.887C591.22 256.817 590.658 260.987 587.731 263.241L567.36 278.906C588.069 297.84 598.874 325.902 595.722 354.077C593.134 377.631 581.541 398.705 563.083 413.469C547.214 426.091 527.968 432.853 508.046 432.853C504.67 432.853 501.406 432.628 498.03 432.29C468.542 429.021 442.768 411.102 429.262 384.956L412.38 397.916C411.142 398.818 409.791 399.269 408.328 399.269C408.159 399.269 407.99 399.213 407.821 399.156C407.653 399.1 407.484 399.043 407.315 399.043C407.146 399.043 406.977 399.1 406.808 399.156C406.64 399.213 406.471 399.269 406.302 399.269C404.839 399.269 403.488 398.818 402.25 397.916L385.368 384.956C371.862 411.102 346.088 429.021 316.6 432.29C313.224 432.628 309.847 432.853 306.583 432.853C286.662 432.853 267.416 426.091 251.547 413.469ZM462.914 359.148L440.292 376.504H440.404C451.547 399.945 473.944 416.061 499.718 418.991C519.639 421.245 539.223 415.498 554.867 402.988C570.511 390.478 580.303 372.559 582.554 352.611C585.368 327.48 575.689 303.475 556.668 287.246L535.734 303.362C548.789 313.392 555.655 329.621 553.854 346.075C551.153 370.305 530.556 388.337 506.696 388.337C505.008 388.337 503.207 388.224 501.406 387.999C484.186 386.083 469.555 375.039 462.914 359.148ZM258.306 287.337C239.467 303.565 229.718 327.639 232.526 352.611C234.664 372.559 244.569 390.478 260.213 402.988C275.857 415.498 295.441 421.245 315.362 418.991C341.136 416.061 363.533 399.832 374.676 376.504L352.053 359.148C345.3 375.039 330.781 386.083 313.561 387.999C311.761 388.337 309.96 388.337 308.159 388.337H308.159C297.354 388.337 287 384.731 278.559 377.969C268.654 369.967 262.352 358.697 261.001 346.075C259.2 329.733 266.178 313.505 279.121 303.362L258.306 287.337Z" fill="#E94C26"/>
<path d="M559.031 901.231H421.158C417.305 901.231 414.18 904.334 414.18 908.162C414.18 911.99 417.305 915.093 421.158 915.093H559.031C562.885 915.093 566.009 911.99 566.009 908.162C566.009 904.334 562.885 901.231 559.031 901.231Z" fill="#E94C26"/>
</g>
<defs>
<clipPath id="clip0_43_389">
<rect width="1600" height="733.333" fill="white" transform="translate(200 183)"/>
</clipPath>
</defs>
</svg>
